<mxfile host="app.diagrams.net" modified="2023-12-20T12:53:12.591Z" agent="Mozilla/5.0 (Windows NT 10.0; Win64; x64) AppleWebKit/537.36 (KHTML, like Gecko) Chrome/120.0.0.0 Safari/537.36 Edg/120.0.0.0" etag="wG9-H6kcJXFrMOvi21cv" version="22.1.11" type="github">
  <diagram id="R2lEEEUBdFMjLlhIrx00" name="Page-1">
    <mxGraphModel dx="965" dy="545" grid="1" gridSize="10" guides="1" tooltips="1" connect="1" arrows="1" fold="1" page="1" pageScale="1" pageWidth="850" pageHeight="1100" math="0" shadow="0" extFonts="Permanent Marker^https://fonts.googleapis.com/css?family=Permanent+Marker">
      <root>
        <mxCell id="0" />
        <mxCell id="1" parent="0" />
        <mxCell id="VrteXZN0E3ys3nQp2Bep-2" value="Supporto" style="whiteSpace=wrap;html=1;align=center;" vertex="1" parent="1">
          <mxGeometry x="161" y="290" width="100" height="40" as="geometry" />
        </mxCell>
        <mxCell id="VrteXZN0E3ys3nQp2Bep-3" value="Film" style="whiteSpace=wrap;html=1;align=center;" vertex="1" parent="1">
          <mxGeometry x="480" y="290" width="100" height="40" as="geometry" />
        </mxCell>
        <mxCell id="VrteXZN0E3ys3nQp2Bep-4" value="Regista" style="whiteSpace=wrap;html=1;align=center;" vertex="1" parent="1">
          <mxGeometry x="380" y="500" width="100" height="40" as="geometry" />
        </mxCell>
        <mxCell id="VrteXZN0E3ys3nQp2Bep-5" value="Attore" style="whiteSpace=wrap;html=1;align=center;" vertex="1" parent="1">
          <mxGeometry x="580" y="500" width="100" height="40" as="geometry" />
        </mxCell>
        <mxCell id="VrteXZN0E3ys3nQp2Bep-7" value="PosizioneVideoteca" style="ellipse;whiteSpace=wrap;html=1;align=right;labelPosition=left;verticalLabelPosition=middle;verticalAlign=middle;fillColor=#FFFFFF;strokeColor=default;fillStyle=auto;gradientColor=none;" vertex="1" parent="1">
          <mxGeometry x="140" y="305" width="10" height="10" as="geometry" />
        </mxCell>
        <mxCell id="VrteXZN0E3ys3nQp2Bep-8" value="ID" style="ellipse;whiteSpace=wrap;html=1;align=right;fontStyle=4;labelBackgroundColor=none;labelPosition=left;verticalLabelPosition=middle;verticalAlign=middle;fillColor=#000000;" vertex="1" parent="1">
          <mxGeometry x="140" y="290" width="10" height="10" as="geometry" />
        </mxCell>
        <mxCell id="VrteXZN0E3ys3nQp2Bep-12" value="TipoSupporto" style="ellipse;whiteSpace=wrap;html=1;align=right;labelPosition=left;verticalLabelPosition=middle;verticalAlign=middle;fillColor=#FFFFFF;strokeColor=default;fillStyle=auto;gradientColor=none;" vertex="1" parent="1">
          <mxGeometry x="140" y="320" width="10" height="10" as="geometry" />
        </mxCell>
        <mxCell id="VrteXZN0E3ys3nQp2Bep-56" style="edgeStyle=none;shape=connector;rounded=0;orthogonalLoop=1;jettySize=auto;html=1;exitX=0;exitY=0.5;exitDx=0;exitDy=0;entryX=1;entryY=0.5;entryDx=0;entryDy=0;labelBackgroundColor=default;strokeColor=default;align=center;verticalAlign=middle;fontFamily=Helvetica;fontSize=11;fontColor=default;endArrow=none;" edge="1" parent="1" source="VrteXZN0E3ys3nQp2Bep-20" target="VrteXZN0E3ys3nQp2Bep-2">
          <mxGeometry relative="1" as="geometry" />
        </mxCell>
        <mxCell id="VrteXZN0E3ys3nQp2Bep-57" style="edgeStyle=none;shape=connector;rounded=0;orthogonalLoop=1;jettySize=auto;html=1;exitX=1;exitY=0.5;exitDx=0;exitDy=0;entryX=0;entryY=0.5;entryDx=0;entryDy=0;labelBackgroundColor=default;strokeColor=default;align=center;verticalAlign=middle;fontFamily=Helvetica;fontSize=11;fontColor=default;endArrow=none;" edge="1" parent="1" source="VrteXZN0E3ys3nQp2Bep-20" target="VrteXZN0E3ys3nQp2Bep-3">
          <mxGeometry relative="1" as="geometry" />
        </mxCell>
        <mxCell id="VrteXZN0E3ys3nQp2Bep-20" value="Archiviazione" style="shape=rhombus;perimeter=rhombusPerimeter;whiteSpace=wrap;html=1;align=center;" vertex="1" parent="1">
          <mxGeometry x="310" y="280" width="120" height="60" as="geometry" />
        </mxCell>
        <mxCell id="VrteXZN0E3ys3nQp2Bep-32" value="ISAN" style="ellipse;whiteSpace=wrap;html=1;align=left;fontStyle=4;labelBackgroundColor=none;labelPosition=right;verticalLabelPosition=middle;verticalAlign=middle;fillColor=#000000;" vertex="1" parent="1">
          <mxGeometry x="591" y="277" width="10" height="10" as="geometry" />
        </mxCell>
        <mxCell id="VrteXZN0E3ys3nQp2Bep-33" value="Titolo" style="ellipse;whiteSpace=wrap;html=1;align=left;labelPosition=right;verticalLabelPosition=middle;verticalAlign=middle;fillColor=#FFFFFF;strokeColor=default;fillStyle=auto;gradientColor=none;" vertex="1" parent="1">
          <mxGeometry x="591" y="292" width="10" height="10" as="geometry" />
        </mxCell>
        <mxCell id="VrteXZN0E3ys3nQp2Bep-34" value="AnnoProduzione" style="ellipse;whiteSpace=wrap;html=1;align=left;labelPosition=right;verticalLabelPosition=middle;verticalAlign=middle;fillColor=#FFFFFF;strokeColor=default;fillStyle=auto;gradientColor=none;" vertex="1" parent="1">
          <mxGeometry x="591" y="305" width="10" height="10" as="geometry" />
        </mxCell>
        <mxCell id="VrteXZN0E3ys3nQp2Bep-35" value="NazionalitÃ " style="ellipse;whiteSpace=wrap;html=1;align=left;labelPosition=right;verticalLabelPosition=middle;verticalAlign=middle;fillColor=#FFFFFF;strokeColor=default;fillStyle=auto;gradientColor=none;" vertex="1" parent="1">
          <mxGeometry x="591" y="319" width="10" height="10" as="geometry" />
        </mxCell>
        <mxCell id="VrteXZN0E3ys3nQp2Bep-36" value="Lingua" style="ellipse;whiteSpace=wrap;html=1;align=left;labelPosition=right;verticalLabelPosition=middle;verticalAlign=middle;fillColor=#FFFFFF;strokeColor=default;fillStyle=auto;gradientColor=none;" vertex="1" parent="1">
          <mxGeometry x="591" y="333" width="10" height="10" as="geometry" />
        </mxCell>
        <mxCell id="VrteXZN0E3ys3nQp2Bep-64" style="edgeStyle=none;shape=connector;rounded=0;orthogonalLoop=1;jettySize=auto;html=1;exitX=0.5;exitY=0;exitDx=0;exitDy=0;entryX=0.75;entryY=1;entryDx=0;entryDy=0;labelBackgroundColor=default;strokeColor=default;align=center;verticalAlign=middle;fontFamily=Helvetica;fontSize=11;fontColor=default;endArrow=none;" edge="1" parent="1" source="VrteXZN0E3ys3nQp2Bep-61" target="VrteXZN0E3ys3nQp2Bep-3">
          <mxGeometry relative="1" as="geometry" />
        </mxCell>
        <mxCell id="VrteXZN0E3ys3nQp2Bep-66" style="edgeStyle=none;shape=connector;rounded=0;orthogonalLoop=1;jettySize=auto;html=1;exitX=0.5;exitY=1;exitDx=0;exitDy=0;entryX=0.5;entryY=0;entryDx=0;entryDy=0;labelBackgroundColor=default;strokeColor=default;align=center;verticalAlign=middle;fontFamily=Helvetica;fontSize=11;fontColor=default;endArrow=none;" edge="1" parent="1" source="VrteXZN0E3ys3nQp2Bep-61" target="VrteXZN0E3ys3nQp2Bep-5">
          <mxGeometry relative="1" as="geometry" />
        </mxCell>
        <mxCell id="VrteXZN0E3ys3nQp2Bep-61" value="Interpretazione" style="shape=rhombus;perimeter=rhombusPerimeter;whiteSpace=wrap;html=1;align=center;fontFamily=Helvetica;fontSize=11;fontColor=default;" vertex="1" parent="1">
          <mxGeometry x="570" y="410" width="120" height="60" as="geometry" />
        </mxCell>
        <mxCell id="VrteXZN0E3ys3nQp2Bep-63" style="edgeStyle=none;shape=connector;rounded=0;orthogonalLoop=1;jettySize=auto;html=1;exitX=0.5;exitY=0;exitDx=0;exitDy=0;entryX=0.25;entryY=1;entryDx=0;entryDy=0;labelBackgroundColor=default;strokeColor=default;align=center;verticalAlign=middle;fontFamily=Helvetica;fontSize=11;fontColor=default;endArrow=none;" edge="1" parent="1" source="VrteXZN0E3ys3nQp2Bep-62" target="VrteXZN0E3ys3nQp2Bep-3">
          <mxGeometry relative="1" as="geometry" />
        </mxCell>
        <mxCell id="VrteXZN0E3ys3nQp2Bep-65" style="edgeStyle=none;shape=connector;rounded=0;orthogonalLoop=1;jettySize=auto;html=1;exitX=0.5;exitY=1;exitDx=0;exitDy=0;entryX=0.5;entryY=0;entryDx=0;entryDy=0;labelBackgroundColor=default;strokeColor=default;align=center;verticalAlign=middle;fontFamily=Helvetica;fontSize=11;fontColor=default;endArrow=none;" edge="1" parent="1" source="VrteXZN0E3ys3nQp2Bep-62" target="VrteXZN0E3ys3nQp2Bep-4">
          <mxGeometry relative="1" as="geometry" />
        </mxCell>
        <mxCell id="VrteXZN0E3ys3nQp2Bep-62" value="Direzione" style="shape=rhombus;perimeter=rhombusPerimeter;whiteSpace=wrap;html=1;align=center;fontFamily=Helvetica;fontSize=11;fontColor=default;" vertex="1" parent="1">
          <mxGeometry x="370" y="410" width="120" height="60" as="geometry" />
        </mxCell>
      </root>
    </mxGraphModel>
  </diagram>
</mxfile>
